<svg data-v-423bf9ae="" xmlns="http://www.w3.org/2000/svg" viewBox="0 0 376 90" class="iconLeft"><!----><!----><!----><g data-v-423bf9ae="" id="dc5938ea-94bb-4790-b60b-e88bef334d76" fill="#000000" transform="matrix(5.172413623006965,0,0,5.172413623006965,110.155171151854,0.41379512050911416)"><path d="M8.29 2.82L8.46 3.00Q8.24 3.33 7.94 3.62Q7.64 3.90 7.29 4.12Q6.93 4.34 6.54 4.47Q6.14 4.59 5.74 4.59L5.74 4.59L4.40 4.61Q4.12 4.94 3.99 5.24Q3.86 5.55 3.86 5.97L3.86 5.97L3.86 7.88L4.06 7.88Q4.33 7.88 4.72 7.89Q5.11 7.90 5.51 7.88Q5.91 7.85 6.28 7.76Q6.64 7.66 6.86 7.46L6.86 7.46L7.03 7.66Q6.82 7.98 6.51 8.20Q6.21 8.42 5.86 8.56Q5.50 8.70 5.11 8.77Q4.71 8.83 4.31 8.84L4.31 8.84L3.86 8.84L3.86 11.44Q3.86 12.35 3.47 13.06Q3.08 13.77 2.34 14.28L2.34 14.28L2.10 14.01Q2.21 13.88 2.28 13.72Q2.35 13.56 2.39 13.38Q2.43 13.20 2.44 13.02Q2.45 12.84 2.45 12.67L2.45 12.67L2.45 8.84L1.12 8.84L1.85 7.88L2.45 7.88L2.45 6.76Q2.45 6.44 2.58 6.14Q2.71 5.83 2.92 5.56Q3.12 5.28 3.37 5.04Q3.62 4.81 3.85 4.61L3.85 4.61Q3.56 4.61 3.31 4.60Q3.05 4.60 2.79 4.60Q2.53 4.60 2.26 4.60Q1.98 4.59 1.65 4.59L1.65 4.59Q1.39 4.59 1.19 4.65Q0.99 4.70 0.82 4.79Q0.65 4.89 0.49 5.03Q0.33 5.17 0.17 5.37L0.17 5.37L-0.03 5.15Q0.21 4.83 0.53 4.49Q0.85 4.16 1.22 3.88Q1.59 3.60 2.01 3.41Q2.42 3.23 2.84 3.23L2.84 3.23L5.49 3.23Q5.76 3.23 6.15 3.23Q6.54 3.22 6.94 3.18Q7.34 3.14 7.70 3.06Q8.07 2.97 8.29 2.82L8.29 2.82ZM8.06 4.61L9.50 4.12L9.14 6.61L8.47 6.82L8.06 4.61ZM10.26 12.03L10.45 12.24Q10.29 12.57 10.08 12.75Q9.87 12.93 9.68 13.01L9.68 13.01Q9.45 13.10 9.22 13.12L9.22 13.12Q8.92 13.12 8.72 13.02Q8.52 12.93 8.41 12.77Q8.29 12.61 8.25 12.41Q8.20 12.22 8.20 12.01L8.20 12.01L8.20 8.18L9.46 7.75L9.46 12.04Q9.46 12.21 9.54 12.30Q9.61 12.40 9.73 12.40Q9.85 12.41 9.99 12.32Q10.13 12.23 10.26 12.03L10.26 12.03ZM13.47 12.03L13.65 12.24Q13.57 12.41 13.44 12.57Q13.32 12.73 13.16 12.85Q13.00 12.97 12.81 13.05Q12.63 13.12 12.43 13.12L12.43 13.12Q11.89 13.12 11.65 12.82Q11.41 12.52 11.41 12.01L11.41 12.01L11.41 3.67L12.67 3.23L12.67 12.04Q12.67 12.18 12.73 12.29Q12.79 12.41 12.95 12.41L12.95 12.41Q13.10 12.41 13.24 12.28Q13.38 12.15 13.47 12.03L13.47 12.03ZM21.83 12.03L22.02 12.24Q21.86 12.57 21.65 12.75Q21.44 12.93 21.25 13.01L21.25 13.01Q21.02 13.10 20.79 13.12L20.79 13.12Q20.48 13.12 20.29 13.02Q20.09 12.93 19.97 12.77Q19.86 12.61 19.81 12.41Q19.77 12.22 19.77 12.01L19.77 12.01L19.77 9.15Q19.77 9.04 19.73 8.95Q19.69 8.87 19.62 8.85Q19.55 8.84 19.46 8.92Q19.36 9.00 19.25 9.21L19.25 9.21Q19.07 9.76 18.92 10.36L18.92 10.36Q18.79 10.88 18.68 11.54Q18.57 12.19 18.56 12.88L18.56 12.88L17.30 13.32L17.30 9.15Q17.30 9.04 17.26 8.95Q17.22 8.87 17.15 8.85Q17.08 8.84 16.98 8.92Q16.88 9.00 16.78 9.21L16.78 9.21Q16.58 9.79 16.43 10.41L16.43 10.41Q16.36 10.68 16.30 10.98Q16.24 11.28 16.19 11.60Q16.15 11.92 16.12 12.24Q16.09 12.56 16.10 12.88L16.10 12.88L14.85 13.32L14.85 8.72Q14.85 8.56 14.78 8.46Q14.70 8.37 14.58 8.36Q14.46 8.36 14.32 8.45Q14.18 8.54 14.04 8.74L14.04 8.74L13.86 8.53Q14.01 8.20 14.22 8.02Q14.43 7.84 14.63 7.76L14.63 7.76Q14.85 7.66 15.09 7.65L15.09 7.65Q15.39 7.65 15.59 7.75Q15.78 7.84 15.90 7.99Q16.01 8.15 16.05 8.35Q16.10 8.54 16.10 8.75L16.10 8.75L16.10 10.19Q16.22 9.58 16.47 9.11Q16.71 8.63 16.98 8.31Q17.25 7.98 17.51 7.82Q17.77 7.65 17.93 7.65L17.93 7.65Q18.13 7.65 18.25 7.71Q18.38 7.78 18.44 7.91Q18.51 8.04 18.54 8.23Q18.56 8.42 18.56 8.67L18.56 8.67L18.56 10.19Q18.69 9.58 18.93 9.11Q19.17 8.63 19.45 8.31Q19.72 7.98 19.98 7.82Q20.24 7.65 20.40 7.65L20.40 7.65Q20.79 7.65 20.91 7.91Q21.03 8.16 21.03 8.67L21.03 8.67L21.03 12.04Q21.03 12.21 21.10 12.30Q21.18 12.40 21.29 12.40Q21.41 12.41 21.55 12.32Q21.69 12.23 21.83 12.03L21.83 12.03ZM31.26 8.15L31.26 8.15Q31.26 8.89 31.07 9.61Q30.88 10.33 30.53 10.96Q30.18 11.60 29.67 12.10Q29.16 12.61 28.51 12.90L28.51 12.90Q28.72 13.21 28.98 13.43Q29.24 13.65 29.54 13.65L29.54 13.65Q29.73 13.65 29.91 13.59Q30.08 13.52 30.24 13.43L30.24 13.43L30.43 13.71Q30.15 14.01 29.80 14.22Q29.45 14.42 29.03 14.42L29.03 14.42Q28.84 14.42 28.65 14.37Q28.46 14.32 28.28 14.23Q28.10 14.14 27.94 14.01Q27.79 13.88 27.68 13.73L27.68 13.73Q27.55 13.56 27.36 13.22L27.36 13.22Q27.23 13.23 27.10 13.24Q26.98 13.25 26.85 13.25L26.85 13.25Q26.17 13.25 25.58 13.05Q24.99 12.84 24.49 12.49Q24.00 12.13 23.62 11.64Q23.24 11.16 22.97 10.59Q22.70 10.03 22.57 9.40Q22.43 8.78 22.43 8.15L22.43 8.15Q22.43 7.52 22.57 6.90Q22.70 6.28 22.97 5.71Q23.24 5.15 23.62 4.66Q24.00 4.17 24.49 3.81Q24.99 3.46 25.58 3.26Q26.17 3.06 26.85 3.06L26.85 3.06Q27.54 3.06 28.13 3.26Q28.72 3.46 29.21 3.81Q29.70 4.17 30.08 4.66Q30.46 5.15 30.72 5.71Q30.99 6.28 31.12 6.90Q31.26 7.52 31.26 8.15ZM26.24 3.75L26.24 3.75Q25.79 3.75 25.45 3.91Q25.10 4.06 24.83 4.32Q24.57 4.59 24.38 4.93Q24.20 5.28 24.08 5.66Q23.97 6.04 23.91 6.44Q23.86 6.84 23.86 7.20L23.86 7.20Q23.86 7.70 23.93 8.26Q24.00 8.82 24.15 9.37Q24.31 9.93 24.55 10.44Q24.79 10.95 25.14 11.37Q25.48 11.79 25.93 12.07Q26.37 12.35 26.93 12.45L26.93 12.45Q26.78 12.17 26.61 11.91Q26.45 11.65 26.28 11.44Q26.11 11.23 25.95 11.10Q25.79 10.98 25.65 10.98L25.65 10.98Q25.57 10.98 25.48 11.00Q25.40 11.01 25.31 11.03L25.31 11.03L25.12 10.71Q25.35 10.60 25.62 10.52Q25.88 10.45 26.14 10.45L26.14 10.45Q26.39 10.45 26.64 10.53Q26.89 10.61 27.10 10.75Q27.32 10.90 27.49 11.09Q27.67 11.29 27.77 11.51L27.77 11.51Q27.85 11.68 27.95 11.90Q28.05 12.13 28.18 12.37L28.18 12.37Q28.64 12.20 28.96 11.83Q29.27 11.46 29.47 11.00Q29.67 10.53 29.76 10.02Q29.85 9.51 29.85 9.04L29.85 9.04Q29.85 8.50 29.76 7.90Q29.68 7.30 29.50 6.71Q29.32 6.13 29.04 5.59Q28.75 5.05 28.35 4.65Q27.95 4.24 27.42 4.00Q26.90 3.75 26.24 3.75ZM37.87 12.03L38.06 12.24Q37.91 12.57 37.69 12.75Q37.48 12.93 37.29 13.01L37.29 13.01Q37.06 13.10 36.83 13.12L36.83 13.12Q36.52 13.12 36.33 13.02Q36.13 12.93 36.02 12.77Q35.90 12.61 35.86 12.41Q35.81 12.22 35.81 12.01L35.81 12.01L35.81 9.83Q35.76 10.08 35.67 10.42Q35.59 10.76 35.46 11.13Q35.34 11.50 35.18 11.87Q35.01 12.24 34.80 12.52Q34.58 12.81 34.31 12.99Q34.04 13.17 33.71 13.17L33.71 13.17Q33.43 13.17 33.27 13.07Q33.11 12.96 33.03 12.77Q32.95 12.57 32.93 12.30Q32.92 12.03 32.92 11.70L32.92 11.70L32.92 8.74Q32.92 8.57 32.84 8.48Q32.76 8.38 32.65 8.38Q32.53 8.37 32.38 8.46Q32.24 8.55 32.10 8.75L32.10 8.75L31.92 8.54Q32.07 8.22 32.28 8.04Q32.48 7.85 32.68 7.77L32.68 7.77Q32.91 7.68 33.15 7.66L33.15 7.66Q33.46 7.66 33.65 7.76Q33.84 7.85 33.96 8.01Q34.07 8.16 34.11 8.36Q34.16 8.56 34.16 8.76L34.16 8.76L34.16 11.59Q34.16 11.86 34.25 11.94Q34.35 12.02 34.50 11.92Q34.66 11.81 34.85 11.53Q35.03 11.25 35.23 10.78L35.23 10.78Q35.35 10.34 35.46 9.86L35.46 9.86Q35.56 9.46 35.66 8.98Q35.76 8.49 35.81 8.04L35.81 8.04L37.07 7.60L37.07 12.04Q37.07 12.21 37.15 12.30Q37.22 12.40 37.34 12.40Q37.45 12.41 37.59 12.32Q37.73 12.23 37.87 12.03L37.87 12.03ZM43.28 11.48L43.48 11.70Q43.24 12.01 42.96 12.28Q42.68 12.54 42.35 12.74Q42.01 12.94 41.64 13.06Q41.28 13.17 40.88 13.17L40.88 13.17Q40.37 13.17 39.95 12.99Q39.53 12.81 39.22 12.49Q38.91 12.17 38.74 11.74Q38.57 11.31 38.57 10.81L38.57 10.81Q38.57 10.40 38.68 10.00Q38.80 9.60 39.01 9.26Q39.22 8.91 39.52 8.61Q39.81 8.31 40.15 8.10Q40.50 7.89 40.89 7.77Q41.28 7.65 41.69 7.65L41.69 7.65Q41.98 7.65 42.24 7.72Q42.49 7.79 42.69 7.93Q42.89 8.08 43.00 8.31Q43.12 8.54 43.12 8.85L43.12 8.85Q43.12 9.11 42.97 9.40Q42.81 9.69 42.56 9.97Q42.31 10.26 42 10.54Q41.69 10.81 41.36 11.05Q41.04 11.29 40.74 11.46Q40.43 11.64 40.21 11.74L40.21 11.74Q40.46 12.05 40.80 12.25Q41.13 12.45 41.51 12.45L41.51 12.45Q41.75 12.45 41.99 12.36Q42.24 12.26 42.47 12.12Q42.70 11.98 42.91 11.81Q43.11 11.63 43.28 11.48L43.28 11.48ZM41.84 9.11L41.84 9.11Q41.84 8.95 41.78 8.80Q41.73 8.66 41.64 8.56Q41.54 8.45 41.41 8.38Q41.28 8.32 41.10 8.32L41.10 8.32Q40.80 8.32 40.54 8.53Q40.28 8.75 40.09 9.06Q39.90 9.38 39.80 9.73Q39.69 10.08 39.69 10.35L39.69 10.35Q39.69 10.61 39.77 10.88Q39.85 11.16 40.00 11.41L40.00 11.41Q40.27 11.26 40.59 10.99Q40.91 10.73 41.19 10.41Q41.47 10.09 41.65 9.75Q41.84 9.41 41.84 9.11ZM47.48 11.15L47.48 11.15Q47.48 11.57 47.32 11.94Q47.16 12.31 46.89 12.58Q46.62 12.86 46.25 13.02Q45.88 13.17 45.45 13.17L45.45 13.17Q45.26 13.17 45.05 13.14Q44.83 13.10 44.62 13.04Q44.41 12.97 44.22 12.87Q44.03 12.76 43.91 12.62L43.91 12.62L44.71 11.57Q44.80 11.70 44.92 11.85Q45.04 12.00 45.18 12.13Q45.33 12.26 45.50 12.35Q45.66 12.43 45.83 12.43L45.83 12.43Q46.03 12.43 46.21 12.37Q46.38 12.30 46.51 12.17Q46.64 12.04 46.72 11.87Q46.79 11.70 46.79 11.50L46.79 11.50Q46.79 11.22 46.60 11.00Q46.42 10.77 46.16 10.55Q45.90 10.34 45.63 10.11Q45.35 9.88 45.18 9.60L45.18 9.60L44.47 10.64L44.20 10.45L45.02 9.31Q44.93 9.11 44.87 8.89Q44.82 8.67 44.82 8.46L44.82 8.46Q44.82 8.27 44.88 8.07Q44.94 7.86 45.06 7.69Q45.17 7.52 45.34 7.41Q45.51 7.29 45.73 7.29L45.73 7.29Q45.94 7.29 46.08 7.42Q46.23 7.55 46.23 7.79L46.23 7.79Q46.23 7.91 46.19 8.03Q46.15 8.16 46.09 8.28Q46.03 8.40 45.95 8.51Q45.88 8.63 45.81 8.72L45.81 8.72Q45.97 8.96 46.16 9.13Q46.35 9.30 46.54 9.45Q46.72 9.60 46.89 9.75Q47.07 9.90 47.19 10.09Q47.32 10.28 47.40 10.53Q47.48 10.79 47.48 11.15ZM45.92 7.91L45.92 7.91Q45.92 7.81 45.86 7.77Q45.79 7.72 45.71 7.72L45.71 7.72Q45.60 7.72 45.55 7.80Q45.50 7.88 45.50 7.97L45.50 7.97Q45.50 8.11 45.54 8.24Q45.59 8.37 45.66 8.48L45.66 8.48Q45.68 8.44 45.73 8.36Q45.77 8.29 45.82 8.20Q45.86 8.11 45.89 8.04Q45.92 7.96 45.92 7.91ZM50.80 12.03L50.99 12.24Q50.83 12.57 50.63 12.75Q50.42 12.93 50.22 13.01L50.22 13.01Q50.00 13.10 49.76 13.12L49.76 13.12Q49.45 13.12 49.26 13.02Q49.06 12.93 48.95 12.77Q48.84 12.61 48.79 12.41Q48.75 12.22 48.75 12.01L48.75 12.01L48.75 8.43L48.02 8.43L48.32 7.75L48.75 7.75L48.75 5.33L50.00 4.89L50.00 7.75L51.30 7.75L51.02 8.43L50.00 8.43L50.00 12.04Q50.00 12.21 50.07 12.30Q50.15 12.40 50.26 12.40Q50.38 12.41 50.52 12.32Q50.67 12.23 50.80 12.03L50.80 12.03Z"></path></g><defs data-v-423bf9ae=""><linearGradient data-v-423bf9ae="" gradientTransform="rotate(25)" id="404a891d-e163-49e8-b7c4-a546edfd40ec" x1="0%" y1="0%" x2="100%" y2="0%"><stop data-v-423bf9ae="" offset="0%" style="stop-color: rgb(78, 26, 112); stop-opacity: 1;"></stop><stop data-v-423bf9ae="" offset="100%" style="stop-color: rgb(43, 76, 242); stop-opacity: 1;"></stop></linearGradient></defs><g data-v-423bf9ae="" id="76e6cbd1-00c3-4b0c-9c2b-45a58427c5bd" transform="matrix(1.089588297211632,0,0,1.089588297211632,-3.331476703954941,-3.331476703954941)" stroke="none" fill="url(#404a891d-e163-49e8-b7c4-a546edfd40ec)"><path d="M45 86.3C22.2 86.3 3.7 67.8 3.7 45S22.2 3.7 45 3.7c22.8 0 41.3 18.5 41.3 41.3 0 9.6-3.3 18.9-9.4 26.3-1.8 2.1-4.9 2.4-7 .7-2.1-1.8-2.4-4.9-.7-7 4.6-5.6 7.1-12.6 7.1-19.9 0-17.2-14-31.3-31.3-31.3-17.2 0-31.3 14-31.3 31.3s14 31.3 31.3 31.3c2.8 0 5 2.2 5 5s-2.2 4.9-5 4.9z"></path><path d="M58 23.4c-2.2 0-4.4.8-6 2.5-3.3 3.3-3.3 8.7 0 12.1 1.7 1.7 3.8 2.5 6 2.5s4.4-.8 6-2.5c3.3-3.3 3.3-8.7 0-12.1-1.6-1.6-3.8-2.5-6-2.5zM32 49.5c-2.2 0-4.4.8-6 2.5-3.3 3.3-3.3 8.7 0 12.1 1.7 1.7 3.8 2.5 6 2.5s4.4-.8 6-2.5c3.3-3.3 3.3-8.7 0-12.1-1.7-1.7-3.8-2.5-6-2.5zM58 49.5c-2.2 0-4.4.8-6 2.5-3.3 3.3-3.3 8.7 0 12.1 1.7 1.7 3.8 2.5 6 2.5s4.4-.8 6-2.5c3.3-3.3 3.3-8.7 0-12.1-1.6-1.7-3.8-2.5-6-2.5zM32 23.4c-2.2 0-4.4.8-6 2.5-3.3 3.3-3.3 8.7 0 12.1 1.7 1.7 3.9 2.5 6 2.5 2.2 0 4.4-.8 6-2.5 3.3-3.3 3.3-8.7 0-12.1-1.7-1.6-3.8-2.5-6-2.5z"></path><g><path d="M45 41.2c-1 0-1.9.4-2.7 1.1-1.5 1.5-1.5 3.9 0 5.4.7.7 1.7 1.1 2.7 1.1 1 0 1.9-.4 2.7-1.1 1.5-1.5 1.5-3.9 0-5.4-.8-.7-1.7-1.1-2.7-1.1z"></path></g><path d="M81.3 86.3H44.6c-2.8 0-5-2.2-5-5s2.2-5 5-5h36.7c2.8 0 5 2.2 5 5s-2.3 5-5 5z"></path></g><!----></svg>